<?xml version="1.0" encoding="iso-8859-1"?>
<!-- Generator: Adobe Illustrator 19.0.0, SVG Export Plug-In . SVG Version: 6.00 Build 0)  -->
<svg version="1.1" id="Layer_1" xmlns="http://www.w3.org/2000/svg" xmlns:xlink="http://www.w3.org/1999/xlink" x="0px" y="0px"
	 viewBox="0 0 512 512" style="enable-background:new 0 0 512 512;" xml:space="preserve">
<polygon style="fill:#E43138;" points="256.001,29.3 234.952,335.445 355.028,336.081 355.028,194.382 414.834,194.382 "/>
<polygon style="fill:#F25F67;" points="256.001,29.3 256.001,335.445 156.973,336.081 156.973,194.382 97.167,194.382 "/>
<polygon style="fill:#F7C02D;" points="512,368.031 501.153,326.642 366.952,359.187 366.952,304.539 296.127,286.802 
	275.093,378.432 296.127,461.43 326.876,470.062 "/>
<polygon style="fill:#FBE27B;" points="232.644,270.905 80.254,294.546 48.706,449.343 176.969,427.98 296.127,461.43 
	296.127,286.802 "/>
<polygon style="fill:#288FD9;" points="80.254,294.481 40.127,294.481 19.094,388.587 40.127,482.693 80.254,482.693 "/>
<rect y="294.485" style="fill:#8BCBF1;" width="40.129" height="188.215"/>
<g>
</g>
<g>
</g>
<g>
</g>
<g>
</g>
<g>
</g>
<g>
</g>
<g>
</g>
<g>
</g>
<g>
</g>
<g>
</g>
<g>
</g>
<g>
</g>
<g>
</g>
<g>
</g>
<g>
</g>
</svg>
