<?xml version="1.0" encoding="iso-8859-1"?>
<!-- Generator: Adobe Illustrator 19.0.0, SVG Export Plug-In . SVG Version: 6.00 Build 0)  -->
<svg xmlns="http://www.w3.org/2000/svg" xmlns:xlink="http://www.w3.org/1999/xlink" version="1.1" id="Capa_1" x="0px" y="0px" viewBox="0 0 465 465" style="enable-background:new 0 0 465 465;" xml:space="preserve" width="512" height="512">
<g>
	<path style="fill:#1895C2;" d="M279.21,33.27c0,14.18,0,25.78,0,25.78h-93.42c0,0,0-11.6,0-25.78c0-14.17,10.51-25.77,23.36-25.77   h46.7C268.7,7.5,279.21,19.1,279.21,33.27z"/>
	<rect x="177.31" y="89.05" style="fill:#F0E6D1;" width="110.38" height="73.3"/>
	<rect x="177.31" y="59.05" style="fill:#6ECDFB;" width="110.38" height="30"/>
	<path style="fill:#CFC8AB;" d="M287.69,162.35H177.31c-68.03,23-117,87.36-117,163.16h344.38   C404.69,249.71,355.72,185.35,287.69,162.35z"/>
	<path style="fill:#FFD608;" d="M364.63,325.51v1.64c0,24.34-48.97,46.19-132.13,46.19s-132.13-21.85-132.13-46.19v-1.64H364.63z"/>
	<path style="fill:#591200;" d="M417.104,318.008h-5.069c-2.989-72.254-48.973-135.723-116.843-160.954V95.188   c1.93-1.357,3.194-3.596,3.194-6.135c0-4.143-3.357-7.5-7.5-7.5H174.113c-4.143,0-7.5,3.357-7.5,7.5   c0,2.539,1.264,4.778,3.194,6.135v61.866c-67.87,25.231-113.854,88.7-116.843,160.954h-5.069c-4.143,0-7.5,3.357-7.5,7.5   s3.357,7.5,7.5,7.5h45.65c3.081,13.275,16.68,24.974,39.068,33.387c25.156,9.452,59.696,14.448,99.887,14.448   s74.73-4.996,99.887-14.448c22.388-8.413,35.987-20.111,39.068-33.387h45.65c4.143,0,7.5-3.357,7.5-7.5   S421.247,318.008,417.104,318.008z M178.578,169.85h59.104c4.143,0,7.5-3.357,7.5-7.5s-3.357-7.5-7.5-7.5h-52.874V96.553h95.385   v58.297h-12.505c-4.143,0-7.5,3.357-7.5,7.5s3.357,7.5,7.5,7.5h18.735c63.938,22.137,107.562,80.947,110.596,148.158H67.981   C71.016,250.797,114.64,191.987,178.578,169.85z M327.11,352.353c-16.378,6.154-46.087,13.49-94.61,13.49   s-78.232-7.336-94.61-13.49c-14.637-5.5-24.679-12.43-28.407-19.345h246.034C351.789,339.923,341.747,346.853,327.11,352.353z"/>
	<path style="fill:#591200;" d="M174.113,66.546h116.773c4.143,0,7.5-3.357,7.5-7.5s-3.357-7.5-7.5-7.5h-4.178V33.273   C286.709,14.927,272.868,0,255.854,0h-46.709c-17.014,0-30.854,14.927-30.854,33.273v18.272h-4.178c-4.143,0-7.5,3.357-7.5,7.5   S169.971,66.546,174.113,66.546z M193.291,33.273c0-10.076,7.112-18.273,15.854-18.273h46.709c8.742,0,15.854,8.197,15.854,18.273   v18.272h-78.418V33.273z"/>
	<path style="fill:#FFE76D;" d="M232.5,465c-4.143,0-7.5-3.357-7.5-7.5v-52.603c0-4.143,3.357-7.5,7.5-7.5s7.5,3.357,7.5,7.5V457.5   C240,461.643,236.643,465,232.5,465z"/>
	<path style="fill:#FFE76D;" d="M143.734,456.549c-0.974,0-1.963-0.19-2.915-0.593c-3.816-1.612-5.603-6.012-3.991-9.827   l20.908-49.5c1.613-3.817,6.016-5.601,9.827-3.991c3.816,1.612,5.603,6.012,3.991,9.827l-20.908,49.5   C149.437,454.828,146.658,456.549,143.734,456.549z"/>
	<path style="fill:#FFE76D;" d="M321.266,456.551c-2.924,0-5.702-1.721-6.912-4.584l-20.908-49.501   c-1.611-3.815,0.175-8.215,3.991-9.827c3.811-1.611,8.214,0.175,9.827,3.991l20.908,49.501c1.611,3.815-0.175,8.215-3.991,9.827   C323.229,456.36,322.239,456.551,321.266,456.551z"/>
</g>















</svg>
