<?xml version="1.0" encoding="iso-8859-1"?>
<!-- Generator: Adobe Illustrator 19.0.0, SVG Export Plug-In . SVG Version: 6.00 Build 0)  -->
<svg version="1.1" id="Layer_1" xmlns="http://www.w3.org/2000/svg" xmlns:xlink="http://www.w3.org/1999/xlink" x="0px" y="0px"
	 viewBox="0 0 508.473 508.473" style="enable-background:new 0 0 508.473 508.473;" xml:space="preserve">
<path style="fill:#56545F;" d="M186.93,37.161L186.93,37.161c-33.229,0-60.355,33.907-60.355,75.613v63.746
	c0,41.706,27.126,75.613,60.355,75.613l0,0c33.229,0,60.355-33.907,60.355-75.613v-63.746
	C247.285,71.069,220.16,37.161,186.93,37.161z"/>
<g>
	<circle style="fill:#EEB490;" cx="341.208" cy="147.36" r="40.689"/>
	<circle style="fill:#EEB490;" cx="168.96" cy="147.36" r="40.689"/>
</g>
<path style="fill:#FF667C;" d="M507.354,508.473H3.153V395.561c0-42.045,31.195-77.309,72.901-82.395l111.216-36.281h136.307
	l111.216,36.281c41.706,5.086,72.901,40.35,72.901,82.395v112.911H507.354z"/>
<path style="fill:#EEB490;" d="M186.93,184.319v97.314c0,37.637,30.517,68.154,68.154,68.154s68.154-30.517,68.154-68.154v-97.314
	H186.93z"/>
<path style="fill:#FACCB4;" d="M255.084,257.559L255.084,257.559c-52.895,0-95.619-42.723-95.619-95.619V47.673h112.572
	c43.401,0,78.326,34.925,78.326,78.326v36.281C350.703,214.836,307.979,257.559,255.084,257.559z"/>
<path style="fill:#56545F;" d="M302.215,17.495c-43.401-31.873-107.486-18.988-142.75,28.821l107.147,79.004
	c43.401,31.873,107.486,18.988,142.75-28.821L302.215,17.495z"/>
<g>
	<path style="fill:#EA5F6E;" d="M65.542,324.356h-3.73c-33.907,0-61.033,27.465-61.033,61.033v123.083h126.135V385.389
		C126.914,351.821,99.45,324.356,65.542,324.356z"/>
	<path style="fill:#EA5F6E;" d="M445.982,324.356h-3.73c-33.907,0-61.033,27.465-61.033,61.033v123.083h125.796V385.389
		C507.354,351.821,479.889,324.356,445.982,324.356z"/>
</g>
<g>
</g>
<g>
</g>
<g>
</g>
<g>
</g>
<g>
</g>
<g>
</g>
<g>
</g>
<g>
</g>
<g>
</g>
<g>
</g>
<g>
</g>
<g>
</g>
<g>
</g>
<g>
</g>
<g>
</g>
</svg>
