<?xml version="1.0" encoding="iso-8859-1"?>
<!-- Generator: Adobe Illustrator 19.0.0, SVG Export Plug-In . SVG Version: 6.00 Build 0)  -->
<svg version="1.1" id="Layer_1" xmlns="http://www.w3.org/2000/svg" xmlns:xlink="http://www.w3.org/1999/xlink" x="0px" y="0px"
	 viewBox="0 0 512 512" style="enable-background:new 0 0 512 512;" xml:space="preserve">
<path style="fill:#4F5AA8;" d="M499.449,176.667C466.054,74.12,369.691,0,256,0C114.615,0,0,114.615,0,256
	c0,113.691,74.12,210.055,176.667,243.449L499.449,176.667z"/>
<path style="fill:#243870;" d="M512,256c0-27.694-4.415-54.353-12.551-79.333l-65.362-65.362L77.913,400.696l98.754,98.754
	C201.647,507.585,228.306,512,256,512C397.385,512,512,397.384,512,256z"/>
<polygon style="fill:#5AC779;" points="256,400.696 434.087,400.696 434.087,378.435 233.739,356.174 "/>
<g>
	<polygon style="fill:#85DC79;" points="77.913,378.435 77.913,400.696 256,400.696 256,356.174 	"/>
	<polygon style="fill:#85DC79;" points="256,378.435 434.087,378.435 434.087,356.174 233.739,333.913 	"/>
</g>
<polygon style="fill:#AFF078;" points="77.913,356.174 77.913,378.435 256,378.435 256,333.913 "/>
<polygon style="fill:#5AC779;" points="256,356.174 434.087,356.174 434.087,333.913 233.739,311.652 "/>
<polygon style="fill:#85DC79;" points="77.913,333.913 77.913,356.174 256,356.174 256,311.652 "/>
<polygon style="fill:#00A085;" points="434.087,333.913 256,333.913 222.609,155.826 434.087,222.609 "/>
<polygon style="fill:#2DB37F;" points="434.087,222.609 222.609,222.609 256,111.304 434.087,111.304 "/>
<path style="fill:#5AC779;" d="M378.435,311.652H256l-33.391-133.565l189.217,44.522v55.652
	C393.383,278.261,378.435,293.209,378.435,311.652z"/>
<path style="fill:#85DC79;" d="M411.826,222.609H222.609L256,133.565h122.435c0,18.443,14.948,33.391,33.391,33.391V222.609z"/>
<polygon style="fill:#2DB37F;" points="77.913,333.913 256,333.913 256,311.652 222.609,155.826 77.913,222.609 "/>
<polygon style="fill:#5AC779;" points="77.913,222.609 233.739,222.609 256,133.565 256,111.304 77.913,111.304 "/>
<path style="fill:#85DC79;" d="M133.565,311.652H256V178.087l-155.826,44.522v55.652
	C118.617,278.261,133.565,293.209,133.565,311.652z"/>
<path style="fill:#AFF078;" d="M100.174,222.609H256v-89.043H133.565c0,18.443-14.948,33.391-33.391,33.391V222.609z"/>
<path style="fill:#00A085;" d="M256,161.391l-34.601,61.217L256,283.826c33.81,0,61.217-27.408,61.217-61.217
	S289.81,161.391,256,161.391z"/>
<path style="fill:#2DB37F;" d="M194.783,222.609c0,33.81,27.408,61.217,61.217,61.217V161.391
	C222.19,161.391,194.783,188.799,194.783,222.609z"/>
<path style="fill:#00A085;" d="M364.522,200.348l-12.582,22.261l12.582,22.261c12.295,0,22.261-9.966,22.261-22.261
	C386.783,210.314,376.816,200.348,364.522,200.348z"/>
<g>
	<path style="fill:#2DB37F;" d="M342.261,222.609c0,12.295,9.966,22.261,22.261,22.261v-44.522
		C352.227,200.348,342.261,210.314,342.261,222.609z"/>
	<path style="fill:#2DB37F;" d="M147.478,200.348l-12.582,22.261l12.582,22.261c12.295,0,22.261-9.966,22.261-22.261
		C169.739,210.314,159.773,200.348,147.478,200.348z"/>
</g>
<path style="fill:#5AC779;" d="M125.217,222.609c0,12.295,9.966,22.261,22.261,22.261v-44.522
	C135.184,200.348,125.217,210.314,125.217,222.609z"/>
<g>
</g>
<g>
</g>
<g>
</g>
<g>
</g>
<g>
</g>
<g>
</g>
<g>
</g>
<g>
</g>
<g>
</g>
<g>
</g>
<g>
</g>
<g>
</g>
<g>
</g>
<g>
</g>
<g>
</g>
</svg>
