<?xml version="1.0" encoding="iso-8859-1"?>
<!-- Generator: Adobe Illustrator 19.0.0, SVG Export Plug-In . SVG Version: 6.00 Build 0)  -->
<svg version="1.1" id="Layer_1" xmlns="http://www.w3.org/2000/svg" xmlns:xlink="http://www.w3.org/1999/xlink" x="0px" y="0px"
	 viewBox="0 0 512 512" style="enable-background:new 0 0 512 512;" xml:space="preserve">
<path style="fill:#FF4719;" d="M466.989,244.747l-13.053,109.152l38.574,0.068l0.056,0.022C505.091,323.809,512,290.715,512,256
	L466.989,244.747z"/>
<g>
	<path style="fill:#FF754F;" d="M444.484,256l16.879-22.505L478.242,256c0,30.416-4.602,59.583-13.053,86.646l-28.301,11.365
		l-6.752-25.881C439.386,305.906,444.484,281.533,444.484,256z"/>
	<path style="fill:#FF754F;" d="M437.023,74.988c-0.011,0-35.694,1.924-35.694,1.924L478.242,256H512
		C512,185.31,483.351,121.305,437.023,74.988z"/>
</g>
<path style="fill:#FF9269;" d="M478.242,256h-33.758c0-51.965-21.133-99.092-55.273-133.21l0.068-0.068l-4.621-40.389l39.179,5.832
	C457.728,133.098,478.242,191.792,478.242,256z"/>
<path style="fill:#FFCD60;" d="M258.869,0.023l164.965,88.143l13.177-13.177C391.314,29.268,328.411,0.776,258.869,0.023z"/>
<path style="fill:#FFEAB5;" d="M389.278,122.722l-0.068,0.068C355.092,88.649,307.965,67.516,256,67.516
	s-99.092,21.133-133.21,55.273l-0.068-0.068l-45.642-0.636L75,74.988C121.316,28.649,185.322,0,256,0
	c0.957,0,1.913,0.011,2.869,0.023c65.851,0.956,124.782,34.906,164.965,88.143L389.278,122.722z"/>
<path style="fill:#FFCD60;" d="M122.722,122.722l0.068,0.068C88.649,156.908,67.516,204.035,67.516,256l-33.758,33.758L0,256
	c0-70.69,28.649-134.695,74.988-181.012C75,74.988,122.722,122.722,122.722,122.722z"/>
<path style="fill:#FF9269;" d="M256,444.484l33.758,33.758L256,512C114.62,512,0,397.38,0,256h67.516
	C67.516,359.93,152.07,444.484,256,444.484z"/>
<path style="fill:#E02E00;" d="M492.51,353.966l-27.322-11.32L258.869,511.978c105.449-1.148,195.584-66.054,233.697-157.989
	L492.51,353.966z"/>
<path style="fill:#FF4719;" d="M256,512v-67.516c78.398,0,145.768-48.105,174.136-116.353l35.052,14.516
	c-30.517,97.764-111.222,167.947-206.319,169.331C257.913,511.989,256.957,512,256,512z"/>
<path style="fill:#FFA89E;" d="M256,158.101v195.798c50.424,0,94.588-38.813,120.967-97.899
	C350.588,196.913,306.424,158.101,256,158.101z"/>
<path style="fill:#FFCD9C;" d="M343.209,256c-19.017-59.087-50.857-97.899-87.209-97.899c-50.425,0-94.588,38.811-120.967,97.899
	c26.379,59.088,70.542,97.899,120.967,97.899C292.352,353.899,324.192,315.086,343.209,256z"/>
<path style="fill:#FFFFFF;" d="M256,191.859c-50.425,0-94.588,25.428-120.967,64.141c26.379,38.713,70.542,64.141,120.967,64.141
	c50.424,0,94.588-25.429,120.967-64.141C350.588,217.288,306.424,191.859,256,191.859z"/>
<path style="fill:#25BBCC;" d="M256,191.859v128.281c35.424,0,64.141-28.717,64.141-64.141S291.424,191.859,256,191.859z"/>
<path style="fill:#50D1DD;" d="M286.382,256c0-35.424-13.602-64.141-30.382-64.141c-35.424,0-64.141,28.717-64.141,64.141
	s28.717,64.141,64.141,64.141C272.78,320.141,286.382,291.424,286.382,256z"/>
<circle style="fill:#111449;" cx="256" cy="256" r="30.382"/>
<g>
</g>
<g>
</g>
<g>
</g>
<g>
</g>
<g>
</g>
<g>
</g>
<g>
</g>
<g>
</g>
<g>
</g>
<g>
</g>
<g>
</g>
<g>
</g>
<g>
</g>
<g>
</g>
<g>
</g>
</svg>
